<svg width="12" height="12" viewBox="0 0 1024 1024" fill="none" xmlns="http://www.w3.org/2000/svg">
<g clip-path="url(#clip0_51_322)">
<g clip-path="url(#clip1_51_322)">
<path fill-rule="evenodd" clip-rule="evenodd" d="M512 96.0001C409.877 95.9689 307.888 103.398 206.848 118.229C122.453 130.603 64 204.587 64 287.616V544.384C64 627.413 122.453 701.397 206.848 713.771C244.435 719.296 282.167 723.791 320 727.253V896C320.006 902.325 321.885 908.506 325.402 913.764C328.919 919.021 333.914 923.118 339.758 925.538C345.602 927.957 352.031 928.591 358.235 927.359C364.439 926.126 370.138 923.083 374.613 918.613L553.131 740.139C556.163 737.153 560.225 735.443 564.48 735.36C650.069 733.227 734.379 725.931 817.152 713.813C901.547 701.355 960 627.456 960 544.427V287.573C960 204.544 901.547 130.645 817.152 118.187C717.525 103.595 615.68 96.0001 512 96.0001ZM459.88 301.962C477.09 284.806 477.134 256.947 459.978 239.737C442.822 222.527 414.962 222.483 397.752 239.639L252.095 384.839C243.814 393.095 239.159 404.307 239.159 416.001C239.159 427.694 243.814 438.907 252.095 447.162L397.752 592.362C414.962 609.518 442.822 609.475 459.978 592.265C477.134 575.055 477.09 547.195 459.88 530.039L345.483 416.001L459.88 301.962ZM627.062 239.639C609.852 222.483 581.993 222.527 564.837 239.737C547.681 256.947 547.725 284.806 564.935 301.962L679.332 416.001L564.935 530.039C547.725 547.195 547.681 575.055 564.837 592.265C581.993 609.475 609.852 609.518 627.062 592.362L772.719 447.162C781 438.907 785.655 427.694 785.655 416.001C785.655 404.307 781 393.095 772.719 384.839L627.062 239.639Z" fill="black"/>
</g>
</g>
<defs>
<clipPath id="clip0_51_322">
<rect width="1024" height="1024" fill="white"/>
</clipPath>
<clipPath id="clip1_51_322">
<rect width="1024" height="1024" fill="white"/>
</clipPath>
</defs>
</svg>
